<?xml version="1.0" encoding="iso-8859-1"?><!DOCTYPE svg PUBLIC "-//W3C//DTD SVG 1.1//EN" "http://www.w3.org/Graphics/SVG/1.1/DTD/svg11.dtd"><svg viewBox="0 0 502.66 502.66" xmlns="http://www.w3.org/2000/svg" xmlns:xlink="http://www.w3.org/1999/xlink"><style>:root>svg{display:none}:root>svg:target{display:block}</style><svg viewBox="0 0 284.929 284.929" id="arrow-up" xmlns="http://www.w3.org/2000/svg"><path d="M17.128 167.872c1.903 1.902 4.093 2.854 6.567 2.854s4.664-.952 6.567-2.854L142.466 55.666l112.208 112.206c1.902 1.902 4.093 2.854 6.563 2.854 2.478 0 4.668-.952 6.57-2.854l14.274-14.277c1.902-1.902 2.847-4.093 2.847-6.563 0-2.475-.951-4.665-2.847-6.567L149.028 7.419c-1.901-1.906-4.088-2.853-6.562-2.853s-4.665.95-6.567 2.853L2.856 140.464C.95 142.367 0 144.554 0 147.034c0 2.468.953 4.658 2.856 6.561l14.272 14.277z"/><path d="M149.028 117.055c-1.901-1.906-4.088-2.856-6.562-2.856s-4.665.953-6.567 2.856L2.856 250.1C.95 252.003 0 254.192 0 256.67c0 2.472.953 4.661 2.856 6.564l14.272 14.276c1.903 1.903 4.093 2.848 6.567 2.848s4.664-.951 6.567-2.848l112.204-112.209L254.674 277.51c1.902 1.903 4.093 2.852 6.563 2.852 2.478 0 4.668-.948 6.57-2.852l14.274-14.276c1.902-1.903 2.847-4.093 2.847-6.564 0-2.478-.951-4.667-2.847-6.57L149.028 117.055z"/></svg><svg viewBox="0 0 502.664 502.664" id="icon" xmlns="http://www.w3.org/2000/svg"><g fill="#010002"><path d="M153.821 358.226L0 274.337v-46.463l153.821-83.414v54.574L46.636 250.523l107.185 53.431v54.272zM180.094 387.584L282.103 115.08h32.227L212.084 387.584h-31.99zM348.843 358.226v-54.272l107.164-52.999-107.164-52.59v-53.927l153.821 83.522v46.183l-153.821 84.083z"/></g></svg></svg>